<?xml version="1.0" encoding="utf-8"?>
<!-- Generator: Adobe Illustrator 16.0.3, SVG Export Plug-In . SVG Version: 6.00 Build 0)  -->
<!DOCTYPE svg PUBLIC "-//W3C//DTD SVG 1.1//EN" "http://www.w3.org/Graphics/SVG/1.1/DTD/svg11.dtd">
<svg version="1.1" id="Layer_1" xmlns="http://www.w3.org/2000/svg" xmlns:xlink="http://www.w3.org/1999/xlink" x="0px" y="0px"
	 width="235.52px" height="67.941px" viewBox="0 0 235.52 67.941" enable-background="new 0 0 235.52 67.941" xml:space="preserve">
<g>
	<path d="M25.219,31.154c-1.336-3.19-3.635-4.081-6.083-4.081c-3.262,0-6.378,2.523-6.378,7.194c0,4.599,3.263,7.122,6.601,7.046
		c2.522-0.073,5.192-1.26,5.935-4.45l11.125,1.93C34.49,49.102,26.256,52.441,18.839,52.441C8.011,52.441,0,45.098,0,34.268
		c0-11.051,7.417-18.466,18.691-18.466c9.345,0,15.502,3.632,17.356,13.053L25.219,31.154z"/>
	<path d="M39.748,51.847V16.54H52.43v35.307H39.748z"/>
	<path d="M58.729,16.392h10.31l1.262,3.932c4.376-7.194,16.243-5.935,20.174-0.221l-6.007,9.269
		c-4.378-4.301-13.055-3.042-13.055,5.714v16.761H58.729C58.729,40.054,58.729,28.185,58.729,16.392z"/>
	<path d="M129.183,16.54v51.401h-12.829V48.36c-2.522,3.487-6.306,3.856-9.494,3.856c-11.422,0-17.282-8.751-17.356-17.576
		c-0.074-9.197,5.935-18.542,18.245-18.47c3.635,0,7.64,1.26,9.791,4.674l1.262-4.305H129.183z M102.336,34.195
		c0,3.411,2.374,6.897,7.121,6.897c4.524,0,7.343-3.117,7.269-7.122c0-3.708-2.893-6.673-7.269-6.673
		C104.709,27.297,102.336,30.929,102.336,34.195z"/>
	<path d="M148.308,51.847h-12.753V0h12.753V51.847z"/>
	<path d="M165.442,38.2c1.184,5.562,9.863,5.786,12.383,1.557l9.939,3.856c-3.114,6.528-9.048,8.9-15.946,8.9
		c-10.83,0-19.285-7.119-19.285-18.615c0.076-9.048,6.304-18.024,19.063-18.024c10.309,0,16.388,5.71,18.097,14.02
		c0.594,2.745,0.442,5.634,0,8.306H165.442z M165.29,29.818c0.076,0,12.608,0,12.608,0C176.268,23.959,167.368,23.959,165.29,29.818
		z"/>
</g>
<g>
	<path d="M195.502,49.37v3.172h-2.607V49.37H195.502z"/>
	<path d="M215.428,40.959l-2.136,0.5c-1.068-2.4-3.205-3.038-5.305-3.038c-3.708,0-5.844,2.672-5.844,6.242
		c0,3.473,2.303,6.043,5.844,6.043c2.1,0,4.301-0.634,5.374-3.27l2.168,0.5c-0.938,3.403-4.139,4.938-7.542,4.938
		c-4.874,0-8.447-3.27-8.447-8.212c0-5.04,3.407-8.411,8.447-8.411C211.39,36.252,214.494,37.555,215.428,40.959z"/>
	<path d="M217.995,44.565c0-4.841,3.708-8.281,8.781-8.281c5.044,0,8.744,3.439,8.744,8.281c0,4.874-3.7,8.31-8.744,8.31
		C221.703,52.875,217.995,49.439,217.995,44.565z M232.851,44.565c0-3.671-2.538-6.145-6.076-6.145c-3.57,0-6.108,2.473-6.108,6.145
		s2.538,6.141,6.108,6.141C230.313,50.707,232.851,48.237,232.851,44.565z"/>
</g>
</svg>
