<?xml version="1.0" encoding="utf-8"?>
<!-- Generator: Adobe Illustrator 16.0.3, SVG Export Plug-In . SVG Version: 6.00 Build 0)  -->
<!DOCTYPE svg PUBLIC "-//W3C//DTD SVG 1.1//EN" "http://www.w3.org/Graphics/SVG/1.1/DTD/svg11.dtd">
<svg version="1.1" id="Layer_1" xmlns="http://www.w3.org/2000/svg" xmlns:xlink="http://www.w3.org/1999/xlink" x="0px" y="0px"
	 width="311.02px" height="67.941px" viewBox="0 0 311.02 67.941" enable-background="new 0 0 311.02 67.941" xml:space="preserve">
<path d="M29.75,63.523C13.347,63.523,0,50.178,0,33.774S13.347,4.021,29.75,4.021c16.404,0,29.751,13.349,29.751,29.753
	S46.155,63.523,29.75,63.523z M29.75,15.015c-10.342,0-18.757,8.417-18.757,18.759S19.409,52.53,29.75,52.53
	c10.343,0,18.758-8.414,18.758-18.756S40.093,15.015,29.75,15.015z"/>
<g>
	<path d="M269.824,48.377h3.375v3.852h-3.375V48.377z"/>
	<path d="M279.141,33.265h2.825v3.301c0.635-1.027,1.467-1.901,2.494-2.623c1.027-0.721,2.359-1.082,3.998-1.082
		c1.149,0,2.17,0.184,3.063,0.55c0.892,0.367,1.65,0.887,2.274,1.559c0.624,0.673,1.101,1.473,1.431,2.402
		c0.33,0.93,0.495,1.957,0.495,3.081v11.774h-2.824V41.127c0-1.764-0.453-3.161-1.357-4.19c-0.905-1.03-2.201-1.544-3.888-1.544
		c-0.807,0-1.559,0.141-2.255,0.423c-0.697,0.282-1.302,0.686-1.816,1.212c-0.514,0.527-0.911,1.159-1.192,1.894
		c-0.282,0.735-0.422,1.544-0.422,2.426v10.881h-2.825V33.265z"/>
	<path d="M301.993,25.452h2.825v26.776h-2.825V25.452z"/>
</g>
<g>
	<path d="M92.835,56.767c-3.464,0-6.68-0.63-9.649-1.889c-2.969-1.259-5.534-2.98-7.693-5.163c-2.159-2.181-3.846-4.757-5.061-7.726
		c-1.215-2.969-1.822-6.141-1.822-9.515v-0.135c0-3.374,0.607-6.534,1.822-9.481c1.215-2.946,2.902-5.534,5.061-7.76
		c2.159-2.227,4.746-3.981,7.76-5.264c3.014-1.282,6.343-1.923,9.987-1.923c2.204,0,4.217,0.181,6.04,0.54
		c1.822,0.361,3.475,0.855,4.959,1.484c1.485,0.631,2.856,1.395,4.117,2.294c1.259,0.9,2.429,1.89,3.509,2.969l-6.613,7.625
		c-1.845-1.664-3.723-2.969-5.634-3.914c-1.913-0.945-4.061-1.417-6.445-1.417c-1.98,0-3.812,0.383-5.5,1.147
		c-1.687,0.766-3.138,1.822-4.353,3.172c-1.214,1.35-2.159,2.913-2.834,4.69c-0.675,1.777-1.012,3.678-1.012,5.702v0.135
		c0,2.024,0.337,3.937,1.012,5.736c0.675,1.8,1.608,3.374,2.8,4.724c1.191,1.35,2.632,2.419,4.319,3.205
		c1.687,0.788,3.542,1.181,5.567,1.181c2.699,0,4.982-0.495,6.85-1.484c1.866-0.989,3.722-2.339,5.567-4.049l6.613,6.68
		c-1.215,1.306-2.475,2.475-3.779,3.509c-1.306,1.035-2.733,1.923-4.285,2.666c-1.552,0.742-3.25,1.305-5.095,1.687
		C97.198,56.575,95.129,56.767,92.835,56.767z"/>
	<path d="M119.895,19.788h10.257v36.169h-10.257V19.788z"/>
	<path d="M139.8,19.788h10.257v7.288c1.034-2.474,2.452-4.454,4.251-5.938c1.799-1.485,4.228-2.16,7.288-2.024v10.729h-0.54
		c-3.419,0-6.107,1.035-8.064,3.104c-1.957,2.07-2.936,5.287-2.936,9.649v13.361H139.8V19.788z"/>
	<path d="M193.447,50.762c-1.26,1.71-2.778,3.116-4.555,4.217c-1.778,1.102-4.015,1.653-6.714,1.653
		c-2.115,0-4.162-0.405-6.141-1.215c-1.98-0.81-3.734-2.013-5.263-3.61c-1.53-1.597-2.756-3.553-3.678-5.871
		c-0.923-2.316-1.383-4.982-1.383-7.996v-0.135c0-3.013,0.46-5.679,1.383-7.997c0.921-2.316,2.136-4.273,3.644-5.871
		c1.506-1.596,3.25-2.8,5.229-3.61c1.979-0.81,4.049-1.214,6.208-1.214c2.743,0,5.004,0.54,6.782,1.62
		c1.776,1.08,3.272,2.339,4.487,3.779v-4.724h10.257v46.966h-10.257V50.762z M184.81,47.927c1.215,0,2.351-0.236,3.408-0.708
		c1.056-0.472,1.979-1.147,2.767-2.024c0.787-0.877,1.417-1.934,1.889-3.171c0.473-1.237,0.708-2.598,0.708-4.083v-0.135
		c0-1.484-0.236-2.845-0.708-4.083c-0.472-1.237-1.103-2.294-1.889-3.171c-0.788-0.877-1.71-1.552-2.767-2.024
		c-1.058-0.473-2.193-0.708-3.408-0.708c-1.214,0-2.351,0.236-3.408,0.708c-1.058,0.472-1.991,1.147-2.8,2.024
		c-0.81,0.877-1.451,1.923-1.923,3.138c-0.472,1.215-0.708,2.587-0.708,4.116v0.135c0,1.484,0.236,2.846,0.708,4.083
		c0.473,1.238,1.114,2.294,1.923,3.171s1.743,1.552,2.8,2.024C182.458,47.691,183.595,47.927,184.81,47.927z"/>
	<path d="M213.354,6.697h10.257v49.261h-10.257V6.697z"/>
	<path d="M250.399,56.767c-2.699,0-5.208-0.45-7.524-1.35c-2.317-0.899-4.319-2.181-6.006-3.846
		c-1.687-1.664-3.003-3.632-3.947-5.905c-0.945-2.271-1.417-4.801-1.417-7.591V37.94c0-2.564,0.439-4.994,1.316-7.288
		c0.877-2.294,2.103-4.295,3.678-6.006c1.574-1.709,3.452-3.059,5.635-4.049c2.182-0.989,4.599-1.484,7.254-1.484
		c3.014,0,5.623,0.54,7.828,1.62c2.204,1.08,4.037,2.53,5.5,4.352c1.461,1.822,2.541,3.914,3.239,6.276
		c0.697,2.362,1.046,4.825,1.046,7.389c0,0.405-0.012,0.833-0.034,1.282c-0.023,0.45-0.057,0.922-0.102,1.417h-25.17
		c0.494,2.34,1.518,4.106,3.07,5.297c1.552,1.192,3.475,1.788,5.77,1.788c1.709,0,3.239-0.292,4.588-0.877
		c1.35-0.584,2.744-1.529,4.184-2.834l5.871,5.196c-1.71,2.115-3.779,3.769-6.208,4.96S253.683,56.767,250.399,56.767z
		 M257.013,35.039c-0.315-2.294-1.125-4.15-2.429-5.567c-1.305-1.417-3.037-2.125-5.196-2.125c-2.159,0-3.903,0.698-5.229,2.092
		c-1.328,1.395-2.193,3.262-2.598,5.601H257.013z"/>
</g>
</svg>
