<?xml version="1.0" encoding="utf-8"?>
<!-- Generator: Adobe Illustrator 16.0.3, SVG Export Plug-In . SVG Version: 6.00 Build 0)  -->
<!DOCTYPE svg PUBLIC "-//W3C//DTD SVG 1.1//EN" "http://www.w3.org/Graphics/SVG/1.1/DTD/svg11.dtd">
<svg version="1.1" id="Layer_1" xmlns="http://www.w3.org/2000/svg" xmlns:xlink="http://www.w3.org/1999/xlink" x="0px" y="0px"
	 width="311.02px" height="67.941px" viewBox="0 0 311.02 67.941" enable-background="new 0 0 311.02 67.941" xml:space="preserve">
<g>
	<path d="M103.656,31.291c-1.32-3.153-3.593-4.034-6.012-4.034c-3.224,0-6.304,2.495-6.304,7.111c0,4.546,3.225,7.04,6.523,6.964
		c2.493-0.072,5.132-1.245,5.865-4.398l10.996,1.907c-1.905,10.188-10.044,13.487-17.374,13.487c-10.702,0-18.62-7.257-18.62-17.961
		c0-10.921,7.331-18.251,18.473-18.251c9.237,0,15.322,3.59,17.154,12.901L103.656,31.291z"/>
	<path d="M118.016,51.742V16.847h12.534v34.895H118.016z"/>
	<path d="M136.775,16.7h10.19l1.248,3.887c4.325-7.112,16.053-5.866,19.938-0.219l-5.937,9.162
		c-4.327-4.251-12.903-3.006-12.903,5.647v16.565h-12.536C136.775,40.087,136.775,28.356,136.775,16.7z"/>
	<path d="M206.41,16.847v50.802h-12.681V48.296c-2.493,3.446-6.232,3.812-9.383,3.812c-11.289,0-17.081-8.649-17.154-17.371
		c-0.073-9.089,5.865-18.327,18.033-18.255c3.593,0,7.551,1.246,9.677,4.621l1.246-4.255H206.41z M179.874,34.297
		c0,3.371,2.346,6.817,7.038,6.817c4.471,0,7.257-3.081,7.184-7.039c0-3.665-2.859-6.595-7.184-6.595
		C182.22,27.479,179.874,31.069,179.874,34.297z"/>
	<path d="M225.312,51.742h-12.608V0.5h12.608V51.742z"/>
	<path d="M242.242,38.254c1.172,5.497,9.75,5.719,12.241,1.539l9.823,3.812c-3.078,6.452-8.942,8.796-15.759,8.796
		c-10.702,0-19.06-7.036-19.06-18.397c0.073-8.944,6.23-17.815,18.839-17.815c10.19,0,16.201,5.644,17.887,13.857
		c0.586,2.713,0.439,5.568,0,8.209H242.242z M242.095,29.97c0.073,0,12.461,0,12.461,0C252.944,24.179,244.147,24.179,242.095,29.97
		z"/>
</g>
<g>
	<path d="M271.954,49.294v3.135h-2.575v-3.135H271.954z"/>
	<path d="M291.646,40.981l-2.111,0.495c-1.056-2.373-3.167-3.003-5.245-3.003c-3.662,0-5.774,2.641-5.774,6.169
		c0,3.433,2.276,5.973,5.774,5.973c2.077,0,4.254-0.625,5.311-3.232l2.146,0.494c-0.925,3.365-4.092,4.882-7.456,4.882
		c-4.817,0-8.347-3.231-8.347-8.117c0-4.981,3.365-8.312,8.347-8.312C287.655,36.329,290.724,37.618,291.646,40.981z"/>
	<path d="M294.186,44.545c0-4.785,3.662-8.184,8.676-8.184c4.983,0,8.645,3.399,8.645,8.184c0,4.817-3.661,8.213-8.645,8.213
		C297.848,52.759,294.186,49.363,294.186,44.545z M308.867,44.545c0-3.628-2.507-6.073-6.005-6.073
		c-3.528,0-6.037,2.444-6.037,6.073s2.508,6.069,6.037,6.069C306.36,50.615,308.867,48.174,308.867,44.545z"/>
</g>
<path d="M29.75,63.523C13.347,63.523,0,50.178,0,33.774S13.347,4.021,29.75,4.021c16.404,0,29.751,13.349,29.751,29.753
	S46.155,63.523,29.75,63.523z M29.75,15.015c-10.342,0-18.757,8.417-18.757,18.759S19.409,52.53,29.75,52.53
	c10.343,0,18.758-8.414,18.758-18.756S40.093,15.015,29.75,15.015z"/>
</svg>
