<?xml version="1.0" encoding="UTF-8" standalone="no"?>
<svg width="141px" height="141px" viewBox="0 0 141 141" version="1.1" xmlns="http://www.w3.org/2000/svg" xmlns:xlink="http://www.w3.org/1999/xlink" xmlns:sketch="http://www.bohemiancoding.com/sketch/ns">
    <!-- Generator: Sketch 3.0.3 (7892) - http://www.bohemiancoding.com/sketch -->
    <title>Oval 1 + CIRQLE</title>
    <desc>Created with Sketch.</desc>
    <defs></defs>
    <g id="Page-1" stroke="none" stroke-width="1" fill="none" fill-rule="evenodd" sketch:type="MSPage">
        <g id="Oval-1-+-CIRQLE" sketch:type="MSLayerGroup" transform="translate(3.000000, 3.000000)">
            <circle id="Oval-1" stroke="#000000" stroke-width="6" sketch:type="MSShapeGroup" cx="67.5" cy="67.5" r="67.5"></circle>
            <path d="M28.0559999,77.1881465 C26.8239937,77.1881465 25.6800051,76.9641487 24.6239999,76.5161465 C23.5679946,76.0681442 22.6560037,75.4561504 21.8879999,74.6801465 C21.119996,73.9041426 20.520002,72.9881518 20.0879999,71.9321465 C19.6559977,70.8761412 19.4399999,69.7481525 19.4399999,68.5481465 L19.4399999,68.5001465 C19.4399999,67.3001405 19.6559977,66.1761517 20.0879999,65.1281465 C20.520002,64.0801412 21.119996,63.1601504 21.8879999,62.3681465 C22.6560037,61.5761425 23.5759945,60.9521488 24.6479999,60.4961465 C25.7200052,60.0401442 26.9039934,59.8121465 28.1999999,59.8121465 C28.9840038,59.8121465 29.6999966,59.8761458 30.3479999,60.0041465 C30.9960031,60.1321471 31.5839972,60.3081454 32.1119999,60.5321465 C32.6400025,60.7561476 33.1279976,61.0281449 33.5759999,61.3481465 C34.0240021,61.6681481 34.4399979,62.0201446 34.8239999,62.4041465 L32.4719999,65.1161465 C31.8159966,64.5241435 31.1480033,64.0601482 30.4679999,63.7241465 C29.7879965,63.3881448 29.0240041,63.2201465 28.1759999,63.2201465 C27.4719963,63.2201465 26.8200029,63.3561451 26.2199999,63.6281465 C25.6199969,63.9001478 25.104002,64.2761441 24.6719999,64.7561465 C24.2399977,65.2361489 23.9040011,65.7921433 23.6639999,66.4241465 C23.4239987,67.0561496 23.3039999,67.7321429 23.3039999,68.4521465 L23.3039999,68.5001465 C23.3039999,69.2201501 23.4239987,69.9001433 23.6639999,70.5401465 C23.9040011,71.1801497 24.2359977,71.7401441 24.6599999,72.2201465 C25.084002,72.7001489 25.5959969,73.0801451 26.1959999,73.3601465 C26.7960029,73.6401479 27.4559963,73.7801465 28.1759999,73.7801465 C29.1360047,73.7801465 29.9479965,73.6041482 30.6119999,73.2521465 C31.2760032,72.9001447 31.9359966,72.4201495 32.5919999,71.8121465 L34.9439999,74.1881465 C34.5119977,74.6521488 34.0640022,75.0681446 33.5999999,75.4361465 C33.1359975,75.8041483 32.6280026,76.1201452 32.0759999,76.3841465 C31.5239971,76.6481478 30.9200031,76.8481458 30.2639999,76.9841465 C29.6079966,77.1201472 28.8720039,77.1881465 28.0559999,77.1881465 Z M38.7639999,60.1001465 L42.4599999,60.1001465 L42.4599999,76.9001465 L38.7639999,76.9001465 L38.7639999,60.1001465 Z M47.36,60.1001465 L55.04,60.1001465 C57.1680106,60.1001465 58.7999943,60.6681408 59.936,61.8041465 C60.8960048,62.7641513 61.376,64.0441385 61.376,65.6441465 L61.376,65.6921465 C61.376,67.0521533 61.0440033,68.1601422 60.38,69.0161465 C59.7159966,69.8721508 58.8480053,70.5001445 57.776,70.9001465 L61.88,76.9001465 L57.56,76.9001465 L53.96,71.5241465 L51.056,71.5241465 L51.056,76.9001465 L47.36,76.9001465 L47.36,60.1001465 Z M54.8,68.2601465 C55.7120045,68.2601465 56.4119975,68.0441486 56.9,67.6121465 C57.3880024,67.1801443 57.632,66.6041501 57.632,65.8841465 L57.632,65.8361465 C57.632,65.0361425 57.3760025,64.4361485 56.864,64.0361465 C56.3519974,63.6361445 55.6400045,63.4361465 54.728,63.4361465 L51.056,63.4361465 L51.056,68.2601465 L54.8,68.2601465 Z M80.412,77.4041465 L78.564,75.7481465 C77.8439964,76.2121488 77.0680042,76.5681452 76.236,76.8161465 C75.4039958,77.0641477 74.5160047,77.1881465 73.572,77.1881465 C72.2759935,77.1881465 71.0840054,76.9601488 69.996,76.5041465 C68.9079946,76.0481442 67.968004,75.4321504 67.176,74.6561465 C66.383996,73.8801426 65.7680022,72.9681517 65.328,71.9201465 C64.8879978,70.8721412 64.668,69.7481525 64.668,68.5481465 L64.668,68.5001465 C64.668,67.3001405 64.8919978,66.1761517 65.34,65.1281465 C65.7880022,64.0801412 66.407996,63.1601504 67.2,62.3681465 C67.992004,61.5761425 68.9359945,60.9521488 70.032,60.4961465 C71.1280055,60.0401442 72.3239935,59.8121465 73.62,59.8121465 C74.9160065,59.8121465 76.1079946,60.0401442 77.196,60.4961465 C78.2840054,60.9521488 79.223996,61.5681426 80.016,62.3441465 C80.808004,63.1201504 81.4239978,64.0321412 81.864,65.0801465 C82.3040022,66.1281517 82.524,67.2521405 82.524,68.4521465 L82.524,68.5001465 C82.524,69.396151 82.3920013,70.2481424 82.128,71.0561465 C81.8639987,71.8641505 81.5000023,72.620143 81.036,73.3241465 L82.764,74.7881465 L80.412,77.4041465 Z M73.62,73.7801465 C74.4680042,73.7801465 75.2039969,73.628148 75.828,73.3241465 L73.092,70.9961465 L75.444,68.3561465 L78.204,70.8521465 C78.5080015,70.148143 78.66,69.3801506 78.66,68.5481465 L78.66,68.5001465 C78.66,67.7801429 78.5360012,67.1001497 78.288,66.4601465 C78.0399988,65.8201433 77.6880023,65.2601489 77.232,64.7801465 C76.7759977,64.3001441 76.2360031,63.9201479 75.612,63.6401465 C74.9879969,63.3601451 74.3080037,63.2201465 73.572,63.2201465 C72.8199962,63.2201465 72.1360031,63.3561451 71.52,63.6281465 C70.9039969,63.9001478 70.3760022,64.2761441 69.936,64.7561465 C69.4959978,65.2361489 69.1520012,65.7921433 68.904,66.4241465 C68.6559988,67.0561496 68.532,67.7321429 68.532,68.4521465 L68.532,68.5001465 C68.532,69.2201501 68.6559988,69.9001433 68.904,70.5401465 C69.1520012,71.1801497 69.5039977,71.7401441 69.96,72.2201465 C70.4160023,72.7001489 70.9519969,73.0801451 71.568,73.3601465 C72.1840031,73.6401479 72.8679962,73.7801465 73.62,73.7801465 Z M86.512,60.1001465 L90.208,60.1001465 L90.208,73.5401465 L98.584,73.5401465 L98.584,76.9001465 L86.512,76.9001465 L86.512,60.1001465 Z M102.068,60.1001465 L114.74,60.1001465 L114.74,63.3881465 L105.74,63.3881465 L105.74,66.7961465 L113.66,66.7961465 L113.66,70.0841465 L105.74,70.0841465 L105.74,73.6121465 L114.86,73.6121465 L114.86,76.9001465 L102.068,76.9001465 L102.068,60.1001465 Z" id="CIRQLE" fill="#000000" sketch:type="MSShapeGroup"></path>
        </g>
    </g>
</svg>