<?xml version="1.0" encoding="UTF-8" standalone="no"?>
<svg width="24px" height="21px" viewBox="0 0 24 21" version="1.1" xmlns="http://www.w3.org/2000/svg" xmlns:xlink="http://www.w3.org/1999/xlink" xmlns:sketch="http://www.bohemiancoding.com/sketch/ns">
    <!-- Generator: Sketch 3.0.3 (7892) - http://www.bohemiancoding.com/sketch -->
    <title>Shape 2</title>
    <desc>Created with Sketch.</desc>
    <defs></defs>
    <g id="Page-1" stroke="none" stroke-width="1" fill="none" fill-rule="evenodd" sketch:type="MSPage">
        <path d="M9,17 C7.896,17 7,17.896 7,19 C7,20.104 7.896,21 9,21 C10.104,21 11,20.104 11,19 C11,17.896 10.104,17 9,17 L9,17 L9,17 Z M18,17 C16.896,17 16,17.896 16,19 C16,20.104 16.896,21 18,21 C19.104,21 20,20.104 20,19 C20,17.896 19.104,17 18,17 L18,17 L18,17 Z M5.40499999,3 L4.99999999,1.5 C4.69099999,0.153 4.5465,0 4.149,0 L1.5,0 C0.672,0 0,0.672 0,1.5 C0,2.328 0.672,3 1.5,3 L3,3 L6,13.8045 C6.282,14.6955 6.9495,15 7.5,15 L19.5,15 C20.121,15 20.6715,14.6835 21,13.8285 L23.5725,6 C23.8005,5.274 24,4.875 24,4.5 C24,3.504 23.145,3 22.5,3 L5.40499999,3 Z M7.86046631,13 L5.9465,5 L21.415,5 L19.1495943,13 L7.86046631,13 Z" id="Shape-2" fill="#FFFFFF" sketch:type="MSShapeGroup"></path>
    </g>
</svg>